<svg xmlns="http://www.w3.org/2000/svg" version="1.1" xmlns:xlink="http://www.w3.org/1999/xlink" width="512" height="512" x="0" y="0" viewBox="0 0 464 464" style="enable-background:new 0 0 512 512" xml:space="preserve" class=""><g><path d="M370.016 269.328 194.672 93.984l-16.457 8.918 182.89 182.891zM300.688 248 288 235.312l-146.832 146.84c5.594 3.047 11.473 5.602 17.465 7.91zM141.207 122.945A147.277 147.277 0 0 0 64 252.575c0 12.288 1.68 24.167 4.52 35.593L204.688 152l-41.145-41.152zM341.055 322.793l12.097-22.336L312 259.313 175.832 395.48c11.426 2.84 23.305 4.52 35.594 4.52a147.277 147.277 0 0 0 129.629-77.207zM252.688 200 240 187.312 90.559 336.755c3.457 4.941 7.257 9.613 11.28 14.094zm0 0" fill="#50ace9" opacity="1" data-original="#000000" class=""></path><path d="M440 224h-12.945a23.98 23.98 0 0 0-21.102 12.566l-50.832 93.84A163.264 163.264 0 0 1 211.426 416C121.312 416 48 342.687 48 252.574c0-60.039 32.8-115.101 85.594-143.695l93.84-50.832A23.989 23.989 0 0 0 240 36.945V24c0-13.23-10.77-24-24-24s-24 10.77-24 24v12.77l-85.91 46.527A202.404 202.404 0 0 0 0 261.426C0 373.129 90.871 464 202.574 464a202.397 202.397 0 0 0 178.121-106.09L427.23 272H440c13.23 0 24-10.77 24-24s-10.77-24-24-24zM216 16c4.414 0 8 3.586 8 8s-3.586 8-8 8-8-3.586-8-8 3.586-8 8-8zM49.602 147.473l13.183 9.054a175.847 175.847 0 0 0-9.137 14.84l-14.023-7.71a190.266 190.266 0 0 1 9.977-16.184zM39.91 308.336l-15.277 4.762C18.903 294.68 16 275.473 16 256c0-26.207 5.184-51.617 15.426-75.512l14.71 6.297C36.755 208.68 32 231.97 32 256c0 17.855 2.664 35.465 7.91 52.336zM440 256c-4.414 0-8-3.586-8-8s3.586-8 8-8 8 3.586 8 8-3.586 8-8 8zm0 0" fill="#50ace9" opacity="1" data-original="#000000" class=""></path><path d="M228.688 176 216 163.312 73.945 305.368c2.313 6 4.864 11.871 7.91 17.465zM276.688 224 264 211.312l-150.848 150.84c4.48 4.024 9.153 7.825 14.094 11.282zm0 0" fill="#50ace9" opacity="1" data-original="#000000" class=""></path></g></svg>